<!-- icon666.com - MILLIONS vector ICONS FREE --><svg id="Layer_3" enable-background="new 0 0 64 64" viewBox="0 0 64 64" xmlns="http://www.w3.org/2000/svg"><g><g><path d="m30.744 49.479 8.578.715c6.138.511 12.19-1.705 16.545-6.061 3.927-3.927 6.133-9.253 6.133-14.806v-19.327h-19.327c-3.558 0-7.022.905-10.085 2.588z" fill="#668831"></path></g><g><path d="m32.589 12.588-1.397 27.937c.252.008.503.019.757.019 13.685 0 24.779-11.094 24.779-24.779 0-1.986-.24-3.915-.681-5.765h-13.374c-3.557 0-7.021.905-10.084 2.588z" fill="#739937"></path></g><g><path d="m23.765 55.356 10.952-9.222c4.617-3.889 7.283-9.619 7.283-15.656 0-5.428-2.156-10.634-5.995-14.473l-14.005-14.005-14.005 14.005c-3.839 3.839-5.995 9.045-5.995 14.473 0 6.037 2.666 11.767 7.284 15.656l10.952 9.222c.493.416 1.118.644 1.764.644.646 0 1.271-.228 1.765-.644z" fill="#94c049"></path></g><g><path d="m7.995 16.005c-3.839 3.839-5.995 9.045-5.995 14.473 0 4.517 1.493 8.861 4.178 12.392.236.006.471.018.709.018 14.297 0 25.887-11.59 25.887-25.887 0-1.588-.151-3.141-.425-4.65l-10.349-10.351z" fill="#c8ec6c"></path></g><g><path d="m22 57c-.88 0-1.736-.312-2.409-.879l-10.951-9.222c-4.855-4.089-7.64-10.074-7.64-16.421 0-5.734 2.233-11.125 6.288-15.18l14.005-14.005c.391-.391 1.023-.391 1.414 0l14.005 14.005c4.055 4.055 6.288 9.446 6.288 15.18 0 6.347-2.785 12.332-7.64 16.421l-10.951 9.222c-.673.567-1.529.879-2.409.879zm0-53.586-13.298 13.298c-3.677 3.677-5.702 8.566-5.702 13.766 0 5.755 2.525 11.183 6.928 14.891l10.951 9.222c.627.528 1.615.528 2.242 0l10.951-9.222c4.403-3.708 6.928-9.136 6.928-14.891 0-5.2-2.025-10.089-5.702-13.766z"></path></g><g><path d="m41.074 51.266c-.609 0-1.221-.025-1.834-.076l-8.578-.715.166-1.993 8.578.715c5.86.486 11.599-1.616 15.755-5.771 3.765-3.766 5.839-8.773 5.839-14.099v-18.327h-18.327c-3.348 0-6.669.853-9.603 2.465l-.963-1.753c3.228-1.774 6.882-2.712 10.566-2.712h19.327c.552 0 1 .448 1 1v19.327c0 5.86-2.282 11.37-6.426 15.513-4.137 4.138-9.704 6.426-15.5 6.426z"></path></g><g><path d="m17 63c-3.309 0-6-2.691-6-6h2c0 2.206 1.794 4 4 4s4-1.794 4-4v-45h2v45c0 3.309-2.691 6-6 6z"></path></g><g><path d="m22.447 24.895-.895-1.789 4.036-2.018c1.157-.579 2.196-1.418 3.003-2.427l2.628-3.285 1.562 1.249-2.628 3.285c-.986 1.233-2.255 2.259-3.67 2.967z"></path></g><g><path d="m21.553 29.895-4.036-2.018c-1.415-.708-2.684-1.734-3.67-2.967l-2.628-3.285 1.562-1.249 2.628 3.285c.807 1.009 1.846 1.848 3.003 2.427l4.036 2.018z"></path></g><g><path d="m22.447 33.895-.895-1.789 4.036-2.018c1.157-.579 2.196-1.418 3.003-2.427l2.628-3.285 1.562 1.249-2.628 3.285c-.986 1.233-2.255 2.259-3.67 2.967z"></path></g><g><path d="m21.553 38.895-4.036-2.018c-1.415-.708-2.684-1.734-3.67-2.967l-2.628-3.285 1.562-1.249 2.628 3.285c.807 1.009 1.846 1.848 3.003 2.427l4.036 2.018z"></path></g><g><path d="m22.447 43.895-.895-1.789 4.036-2.018c1.157-.579 2.196-1.418 3.003-2.427l2.628-3.285 1.562 1.249-2.628 3.285c-.986 1.233-2.255 2.259-3.67 2.967z"></path></g><g><path d="m21.553 48.895-4.036-2.018c-1.415-.708-2.684-1.734-3.67-2.967l-2.628-3.285 1.562-1.249 2.628 3.285c.807 1.009 1.846 1.848 3.003 2.427l4.036 2.018z"></path></g><g><path d="m39.308 22.5h18.385v2h-18.385z" transform="matrix(.707 -.707 .707 .707 -2.412 41.178)"></path></g><g><path d="m45.88 26.044-1.427-4.28c-.5-1.499-.672-3.122-.498-4.693l.465-4.181 1.987.221-.464 4.181c-.143 1.286-.002 2.614.407 3.84l1.427 4.28z"></path></g><g><path d="m51.455 31.495c-1.185 0-2.373-.19-3.491-.563l-4.28-1.427.633-1.897 4.28 1.427c1.226.409 2.555.55 3.84.407l4.181-.464.221 1.987-4.181.464c-.399.044-.802.066-1.203.066z"></path></g></g></svg>